<svg version="1.2" xmlns="http://www.w3.org/2000/svg" viewBox="0 0 1024 1024" width="1024" height="1024">
	<title>alternate_logo</title>
	<style>
		.s0 { fill: #ffffff } 
		.s1 { fill: #000000 } 
	</style>
	<g id="Shape 3">
		<path id="Path 0" class="s0" d="m72 3.1c-3.6 0.5-11.2 2.6-17 4.5-5.8 2-12.9 5.2-15.9 7.2-3 2-10.1 8.6-15.8 14.7-7.5 7.9-11.4 13-13.9 18-1.9 3.9-4.6 11.5-6.1 17-2.4 9-2.7 11.8-2.7 27.5-0.1 15.3 0.2 18.6 2.3 26.5 1.3 5 4.3 13.9 6.6 20 2.3 6.1 5.7 13.9 7.5 17.5 1.8 3.6 5.1 9.4 7.4 13 2.4 3.6 10.5 13 18.2 20.9 7.6 7.9 17.3 17.1 21.4 20.4 4.6 3.6 12.2 8.2 19.5 11.7 6.6 3.2 17.4 8.1 24 10.8 6.6 2.8 20.6 8 31 11.7l19 6.6 35 34.9h188l-124.5-124.5c-20.8-45.7-29.2-63.5-32-69-2.9-5.5-7.4-13.5-9.9-17.9-2.5-4.3-7.1-10.7-10.1-14.2-3-3.5-10.2-10.7-16-16.1-5.8-5.4-13.2-12.1-16.5-14.8-3.3-2.8-8.9-6.7-12.5-8.7-3.6-2-12.3-6-19.5-8.9-7.2-2.9-17-6-22-7.1-5.6-1.2-14.7-2-24-2.3-8.2-0.2-17.9 0.1-21.5 0.6z"/>
		<path id="Path 1" class="s0" d="m911.5 3.6c-4.4 0.8-11.1 2.6-15 3.9-3.9 1.3-12 4.4-18 7-6 2.6-13.9 6.6-17.5 8.9-3.6 2.4-11.2 8.6-17 13.8-5.8 5.3-15.1 14.2-20.6 19.9-6.1 6.3-12.7 14.4-16.7 20.4-3.5 5.5-11.9 19.2-18.4 30.5-6.6 11.3-17.8 31.5-24.9 44.9l-12.9 24.4-101.4 103.2c25.1 1 36.4 1.8 41.4 2.4 5 0.7 12.8 2.1 17.5 3.2 4.7 1 14.8 4 22.5 6.6 7.7 2.6 21.4 8.4 30.5 12.9 9.1 4.5 20.1 10.5 24.5 13.4l8 5.1 47-46.8c47.3-24 68.4-35.2 77.5-40.3 9.1-5.1 20.3-11.6 25-14.4 4.7-2.8 11.6-7.6 15.5-10.7 3.9-3.1 13.8-12.6 22.1-21 9.1-9.3 17-18.4 20-22.9 2.6-4.1 6.3-10.9 8.2-15 1.9-4.1 4.9-11.3 6.8-16 1.9-4.7 4.4-13 5.7-18.5 1.8-8.4 2.2-12.9 2.2-28.5-0.1-17.3-0.2-19.1-2.8-27.5-1.5-5-4.2-11.9-5.8-15.5-2.4-5.1-5.7-9.1-14.8-18.3-6.4-6.5-13.8-13.3-16.6-15.2-2.7-1.8-7.7-4.2-11-5.4-3.3-1.1-9.1-2.8-13-3.7q-7-1.7-23.5-2c-11.7-0.2-18.8 0.1-24.5 1.2z"/>
		<path id="Path 2" class="s1" d="m635 282.1c-4.1 0.4-13.1 2-20 3.4-6.9 1.5-16.1 3.8-20.5 5.2-4.4 1.4-12.5 4.3-18 6.5-5.5 2.2-14.7 6.4-20.5 9.5-5.8 3-15.5 8.7-21.5 12.5-6 3.9-14.8 10.3-19.5 14.3-4.7 4-13 11.9-18.6 17.6-5.5 5.7-13.6 14.9-18 20.4-4.3 5.5-10.7 14.6-14.1 20.2-3.5 5.7-8.2 14-10.4 18.5-2.3 4.6-6.2 13.5-8.7 19.8-2.4 6.3-5.9 17.3-7.8 24.5-1.8 7.1-4 17.7-4.9 23.5-0.9 5.8-1.9 18.4-2.2 28-0.4 10.6-0.1 22 0.6 29 0.7 6.3 2.5 17.3 4.2 24.5 1.6 7.1 4.7 18.2 6.8 24.5 2.1 6.3 6.1 16.5 8.8 22.5 2.7 6 8.1 16.4 12 23 3.9 6.6 10.8 16.7 15.4 22.5 4.6 5.8 12.7 14.9 17.9 20.4 5.2 5.4 13.8 13.3 19 17.6 5.2 4.2 12.9 9.9 17 12.7 4.1 2.7 11.3 7.2 16 10 4.7 2.7 13.2 7.1 19 9.6 5.8 2.5 16.6 6.5 24 9 7.4 2.4 17.3 5.4 22 6.5 4.7 1.2 15.7 2.8 24.5 3.7 8.8 0.8 23.5 1.5 32.8 1.5 11.1 0 19.3-0.5 24.5-1.6 4.2-0.8 14.9-3.3 23.7-5.5 8.8-2.2 20.7-5.9 26.5-8.1 5.8-2.3 15-6.5 20.5-9.3 5.5-2.8 13.8-7.6 18.5-10.6 4.7-3.1 12.5-8.9 17.5-13.1 5-4.1 12.8-11.5 17.5-16.4 4.7-4.9 11.4-12.8 14.9-17.4 3.5-4.7 8.9-12.8 11.9-18 3.1-5.2 7.7-14 10.3-19.5 2.5-5.5 6.1-14 7.8-19 1.8-5 4.3-13.5 5.7-19 1.4-5.5 3.2-14.7 3.9-20.5 0.8-5.8 1.9-19.5 2.6-30.5 0.6-11 1-24.7 0.7-30.5-0.2-5.8-0.7-11.1-1.1-11.8-0.6-0.9-30.8-1.2-145.9-1.2h-145.3l64 64.1 152.5-0.1c0 9.3-0.5 15.5-1.1 19.7-0.6 4.3-2.7 12.1-4.6 17.3-2 5.2-5 12.4-6.8 16-1.8 3.6-6.1 10.1-9.6 14.4-3.5 4.4-9.5 10.8-13.4 14.2-3.9 3.5-9.5 8.1-12.5 10.4-3 2.3-9.3 6-14 8.2-4.7 2.2-13.7 5.8-20 7.8-6.3 2.1-15.3 4.6-20 5.6-7.1 1.6-12.6 1.9-33 1.8-21.2-0.1-25.9-0.4-35-2.3-5.8-1.2-15.2-3.8-21-5.7-5.8-2-14.1-5.3-18.5-7.4-4.4-2.1-13-7.1-19-11.1-8.1-5.3-14.5-10.7-24.1-20.3-8.3-8.4-15.1-16.2-18.6-21.6-3-4.7-7.6-12.5-10-17.5-2.5-5-6.2-13.2-8.2-18.3-2-5-4.5-12.9-5.7-17.5-1.6-6.5-2.1-12.8-2.6-30.2-0.4-14.8-0.2-25.3 0.6-32 0.8-6 2.9-15 5.3-22.5 2.3-6.9 6.9-18.1 10.4-25 3.5-6.9 8.4-15.2 10.9-18.5 2.5-3.3 8.9-10.7 14.3-16.4 5.3-5.8 14.2-14.2 19.7-18.8 7.8-6.6 13-9.9 24-15.3 7.7-3.8 18.7-8.5 24.5-10.4 5.8-1.9 15.7-4.4 22-5.7 7.9-1.5 15.3-2.2 23.5-2.2 6.6 0 15.6 0.5 20 1.2 4.4 0.7 11.8 2.1 16.5 3.3 4.7 1.1 13.2 3.8 19 6 5.8 2.2 16.6 7.1 24 10.9 8.7 4.5 18.1 10.4 26.4 16.7 7.1 5.3 14.7 11.1 16.8 12.7 3.8 3 3.8 3 5.3 1 0.9-1.1 6-8.3 11.4-16 5.3-7.7 13.6-19.6 18.4-26.5l8.6-12.5c-21.2-16.5-31.8-24.2-37.1-27.9-5.4-3.6-17.3-10.3-26.5-14.9-9.3-4.5-23.1-10.4-30.8-13-7.7-2.6-17.8-5.6-22.5-6.7-4.7-1-14.3-2.6-21.5-3.5-7.1-0.8-20-1.4-28.5-1.4-8.5 0.1-18.9 0.5-23 1z"/>
		<path id="Path 3" class="s0" d="m494.8 622.8l-16.7 16.7c11.9 14.7 19 22.8 23.4 27.4 4.4 4.6 12.3 11.8 17.5 16.1 5.2 4.2 12.2 9.5 15.5 11.7 3.3 2.2 10 6.5 15 9.5 5 3 11.5 6.6 14.5 8.1 3 1.4 8.2 3.6 11.5 5 3.3 1.4 10.7 4.1 16.5 6 5.8 2 15 4.8 20.5 6.2 5.5 1.4 13.8 2.9 18.5 3.2l8.5 0.5c-98.4-98.6-127.2-127.2-127.5-127.2-0.3 0-8 7.5-17.2 16.8z"/>
		<path id="Path 4" class="s0" d="m622.2 505.3l-6.2 6.2 35.5 35.5h151.5c5.8 5.8 6 6.6 6 13 0 3.9-0.5 10.5-1.1 14.7-0.6 4.3-2.4 11.8-4 16.8-1.6 5-5.2 13.5-7.9 19-3.6 7.4-7.1 12.5-13.2 19.5-4.6 5.2-12.9 13.2-18.3 17.8-5.5 4.5-10.5 8.4-11 8.6-0.5 0.2 7.4 8.9 17.7 19.2l18.7 18.9c9-7.7 14.7-12.9 18.5-16.5 3.7-3.6 10.3-10.8 14.5-16 4.2-5.2 10.2-13.5 13.2-18.5 3.1-5 7.5-12.8 9.9-17.5 2.4-4.7 6.2-13.2 8.5-19 2.3-5.8 5.6-16.4 7.3-23.5 1.7-7.1 3.6-16.8 4.1-21.5 0.6-4.7 1.5-15.9 2.1-25 0.5-9.1 1-21.3 1-27.3v-10.7h-240.6z"/>
		<path id="Path 5" class="s0" d="m767.9 349.5c-10.7 10.7-19.2 19.6-18.9 19.8 0.3 0.2 4.1 2.7 8.5 5.7 4.4 2.9 12 8.4 17 12.2 5 3.8 9.3 6.6 9.7 6.1 0.4-0.4 7.2-10.2 15.2-21.8 7.9-11.6 14.2-21.3 14-21.8-0.2-0.4-5.7-4.7-12.1-9.5-6.5-4.9-12.3-9.1-12.9-9.5-0.7-0.3-9.6 7.9-20.5 18.8z"/>
		<path id="Path 6" class="s0" d="m630 290.7c-1.4 0.2-7.9 1.6-14.5 3-6.6 1.4-16.5 4-22 5.8-5.5 1.9-13.4 4.8-17.5 6.5-4.1 1.7-11.5 5.2-16.5 7.9-5 2.6-13.7 7.6-19.4 11.2-5.7 3.5-15.1 10.5-21 15.5-5.8 5-14 12.6-18.1 17-4.2 4.3-10.8 12-14.8 16.9-4 5-7.2 9.2-7.2 9.5 0 0.3 7.4 7.9 16.5 17l16.5 16.5c123.9-124 127.2-127.5 124-127.4-1.9 0.1-4.6 0.4-6 0.6z"/>
		<path id="Path 7" class="s1" d="m150 511v225l267.5-0.5c-0.4-53.5-0.6-69.1-0.7-69.2-0.2-0.1-44.3-0.6-98.1-1l-97.7-0.8v-122.5h169v-59.5l-10.5-10.5h-158.5v-115.5h196.5l0.2-70.5h-267.7z"/>
		<path id="Path 8" class="s0" d="m399.5 718l-10 10h20.5c0-15.5-0.1-20-0.3-20-0.1 0-4.7 4.5-10.2 10z"/>
		<path id="Path 9" class="s0" d="m399 304.5c5.8 5.8 10.6 10.5 10.8 10.5 0.1 0 0.2-4.7 0.2-10.5v-10.5h-21.5z"/>
		<path id="Path 10" class="s0" d="m158 511v217h43.5l54.7-55c-30.6 0-37-0.4-38.7-1.3-1.4-0.6-2.9-2.2-3.5-3.5-0.6-1.4-1-25-1-64.7 0-39.7 0.4-63.3 1-64.8 0.6-1.2 2.1-2.8 3.5-3.5 1.9-0.9 20.7-1.2 83.5-1.2h81v-54c-143.8 0-162.6-0.3-164.5-1.3-1.4-0.6-2.9-2.2-3.5-3.5-0.6-1.4-1-24-1-61.7v-59.5l5.8-6h35.7l-54-54h-42.5z"/>
		<path id="Path 11" class="s0" d="m417.8 340l-0.3 16.5-153.6 1c119.5 119.4 154 154.3 153.9 154.8-0.2 0.4-34.5 34.9-76.3 76.7l-76 76c41.9 0 75.9 0.3 102.8 0.8l48.7 0.7c0.2 14 0.5 21.3 0.9 25.3l0.6 7.2 53.7-53.5c-13.4-22.5-19.3-33.7-21.8-39.5-2.6-5.8-6.4-15.7-8.5-22-2.1-6.3-5.2-17.4-6.8-24.5-1.7-7.1-3.5-18.2-4.2-24.5-0.7-7-1-18.4-0.6-29 0.3-9.6 1.3-22.2 2.2-28 0.9-5.8 3.1-16.4 4.9-23.5 1.9-7.1 5.4-18.2 7.8-24.5 2.5-6.3 6.4-15.2 8.7-19.8 2.2-4.5 7.2-13.4 11.1-19.7 3.8-6.3 7-11.8 7-12.3 0-0.4-12.1-12.8-27-27.7l-27-27z"/>
		<path id="Path 12" class="s0" d="m647.5 352c-3.9 0.4-10.8 1.5-15.5 2.5-4.7 0.9-13.2 3.3-19 5.1-5.8 1.9-16.8 6.6-24.5 10.4-11 5.4-16.2 8.7-24 15.3-5.5 4.6-14.4 13-19.7 18.8-5.4 5.7-11.8 13.1-14.3 16.4-2.5 3.3-7.4 11.6-10.9 18.5-3.5 6.9-8.1 18.1-10.4 25-2.4 7.5-4.5 16.5-5.3 22.5-0.8 6.7-1 17.2-0.6 32 0.5 17.4 1 23.7 2.6 30.3 1.2 4.5 3.7 12.4 5.7 17.4 2 5.1 5.7 13.3 8.2 18.3 2.4 5 7 12.8 10 17.5 3.5 5.4 10.3 13.2 18.6 21.6 9.6 9.6 16 15 24.1 20.3 6 4 14.6 9 19 11.1 4.4 2.1 12.7 5.4 18.5 7.4 5.8 1.9 15.2 4.5 21 5.7 9.1 1.9 13.8 2.2 35 2.3 20.4 0.1 25.9-0.2 33-1.8 4.7-1 13.7-3.5 20-5.6 6.3-2.1 15.1-5.4 19.5-7.5l8-3.7-162-160.8h42l116-115.8c-14.3-7.1-23.1-10.9-28.8-13-5.6-2.1-12.9-4.6-16.2-5.5-3.3-0.9-10.3-2.3-15.5-3.1-5.2-0.9-13.5-1.7-18.5-2-5-0.2-12.1-0.1-16 0.4z"/>
		<path id="Path 13" class="s0" d="m784.9 707.2c-5.7 3.8-15.8 9.5-22.4 12.7-6.6 3.2-15.8 7.3-20.5 9.1-4.7 1.7-15.5 4.9-24 7-8.5 2.2-19 4.6-23.2 5.4-5.4 1.1-13.5 1.6-26.5 1.6h-18.8l97.2 97.5c21.3 41.8 33.9 65.2 41.6 79 7.7 13.7 16.3 28.4 19.1 32.5 2.7 4.1 11.1 13.8 18.5 21.4 7.5 7.6 17 16.8 21.1 20.3 5.8 5 11.2 8.3 23.5 14.3 8.8 4.4 19.4 9 23.5 10.4 4.1 1.4 12 3.2 17.5 4.1 5.6 0.9 15.9 1.6 23.5 1.7 8.8 0 15.8-0.6 20-1.6 3.6-0.8 9.6-2.6 13.5-3.9 3.9-1.3 9-3.4 11.5-4.7 2.5-1.3 9.7-7.5 16.1-13.9 6.4-6.4 13.1-13.6 14.8-16.1 1.8-2.5 4.6-8.8 6.2-14 1.7-5.2 3.7-14 4.6-19.5 1-6.7 1.3-13.8 1-21.5-0.3-6.3-1.3-15.1-2.2-19.5-0.9-4.4-3.2-12.3-5.2-17.5-1.9-5.2-5.8-14.5-8.8-20.5-3.8-7.9-7.5-13.6-13.3-20.5-4.3-5.2-13.9-15.6-21.3-23-8.9-9-16.3-15.5-21.9-19.2-4.7-3-15.5-9.7-24-14.8-8.5-5.1-22.5-13.1-31-17.8-8.5-4.7-22.7-12.2-31.5-16.8l-16-8.3-52.3-50.8z"/>
		<path id="Path 14" class="s0" d="m179 751.6c-13.8 13.9-16.3 16-23 19.1-4.1 2-15.8 7.3-26 12-10.2 4.6-25.3 11.8-33.5 15.8-8.3 4.1-18.8 9.8-23.5 12.7-4.7 2.9-12.5 9.1-17.4 13.8-4.9 4.7-13.2 13.2-18.4 19-5.3 5.8-11.4 13.4-13.7 17-2.4 3.6-6.3 11.2-8.8 17-2.5 5.8-5.8 14.1-7.2 18.5-1.5 4.4-3.4 13-4.2 19-1.1 7.7-1.4 15.2-1 25 0.4 11 1.1 15.9 3.2 23 1.4 5 3.9 11.9 5.6 15.5 2.3 5.2 5.2 8.8 14.7 18.2 6.4 6.5 13.3 12.9 15.2 14.3 1.9 1.4 5.5 3.5 8 4.6 2.5 1.1 7.9 2.9 12 4.1 4.1 1.1 11.3 2.7 16 3.4 4.7 0.8 11.2 1.4 14.5 1.4 3.3 0 10.7-0.7 16.5-1.5 6.1-0.9 15.5-3.2 22.5-5.6 6.6-2.3 17.4-6.7 24-9.9 7.2-3.4 15-8.1 19.5-11.7 4.1-3.3 14.1-12.7 22.1-20.9 8-8.2 16.3-17.6 18.4-20.9 2.1-3.3 6.2-11 9-17 2.9-6 7.9-17.8 11.3-26 3.3-8.3 8.3-21.8 11.1-30l5.2-15 130.4-130.5h-187z"/>
	</g>
</svg>
