<svg version="1.2" xmlns="http://www.w3.org/2000/svg" viewBox="0 0 1024 1024" width="1024" height="1024">
	<title>alternate_logo</title>
	<style>
		.s0 { fill: #ffffff } 
		.s1 { fill: #000000 } 
	</style>
	<g id="Folder 1">
		<path id="Path 0" fill-rule="evenodd" class="s0" d="m93.5 2.5c9.3 0.3 18.4 1.1 24 2.3 5 1.1 14.8 4.2 22 7.1 7.2 2.9 15.9 6.9 19.5 8.9 3.6 2 9.2 5.9 12.5 8.7 3.3 2.7 10.7 9.4 16.5 14.8 5.8 5.4 13 12.6 16 16.1 3 3.5 7.6 9.9 10.1 14.2 2.5 4.4 7 12.4 9.9 17.9 2.8 5.5 11.2 23.3 32 69l124.5 124.5h-188l35.5 35.6c19.5 19.5 35.1 35.4 34.5 35.3-0.6-0.1-10.1-0.1-41.5 0.1v115h157.5l-115-115 154-0.5 0.5-33 54.5 54.6 7-8.8c3.9-4.8 10.6-12.5 15-17.2 4.4-4.6 12.9-12.6 19-17.8 6-5.2 15.7-12.4 21.5-16 5.8-3.7 14.5-8.8 19.5-11.4 5-2.6 13.3-6.6 18.5-8.7 5.2-2.2 13.8-5.3 19-7.1 5.2-1.7 14.5-4.2 20.5-5.5 6-1.3 15.3-2.9 20.5-3.6 5.2-0.6 10.7-1 12.2-0.8 2.5 0.3-3.4 6.5-133.2 136.3l-19.5-19.5c-18.6-18.6-19.5-19.4-20.9-17.5-0.8 1.1-5 7.9-9.2 15-4.3 7.1-9.7 17.3-12 22.5-2.3 5.2-5.7 14-7.7 19.5-1.9 5.5-4.6 14.9-6 21-1.4 6.1-3.3 15.7-4.2 21.5-0.8 5.8-1.8 17.5-2.2 26-0.4 9.6-0.1 20.1 0.6 27.5 0.7 6.6 2.1 16 3.2 21 1.1 5 3.3 13.7 4.9 19.5 1.6 5.8 4.7 15 6.9 20.5 2.1 5.5 6 14.3 8.6 19.5 2.6 5.2 7.7 14.4 18 31.1l39.5-39.6 136 136-3.7 0.3c-2.1 0.2-8.8-0.1-14.8-0.7-6.6-0.7-15.8-2.5-23-4.5-6.6-1.9-16.5-5-22-6.9-5.5-2-14-5.3-19-7.5-5-2.2-12.4-6-16.5-8.4-4.1-2.5-11.3-6.9-16-10-4.7-3-13.5-9.5-19.5-14.5-6.1-4.9-13.9-12.1-17.5-15.9-3.6-3.8-10.1-11.2-14.4-16.4-4.3-5.2-8.2-10-8.7-10.5-0.6-0.6-10.7 8.8-27.7 25.7-14.7 14.8-27 26.8-27.5 26.8-0.4 0-0.7-7.2-0.7-16 0-8.8-0.3-16.2-0.8-16.4-0.4-0.2-34.5-0.7-150.7-1.8l122.9-122.8h-167.4v123l20.7 0.1c11.5 0.1 21.2 0.1 21.8 0 0.5-0.1-14.8 15.5-69 69.7l8.5 0.6c4.7 0.3 46.7 0.6 178.4 0.6l-130.3 130.5-5.2 15c-2.8 8.2-7.8 21.7-11.1 30-3.4 8.2-8.4 20-11.3 26-2.8 6-6.9 13.7-9 17-2.1 3.3-10.4 12.7-18.4 20.9-8 8.2-18 17.6-22.1 20.9-4.5 3.6-12.3 8.3-19.5 11.7-6.6 3.2-17.4 7.6-24 9.9-7 2.4-16.4 4.7-22.5 5.6-5.8 0.8-13.2 1.5-16.5 1.5-3.3 0-9.8-0.6-14.5-1.4-4.7-0.7-11.9-2.3-16-3.4-4.1-1.2-9.5-3-12-4.1-2.5-1.1-6.1-3.2-8-4.6-1.9-1.4-8.8-7.8-15.2-14.3-9.5-9.4-12.4-13-14.7-18.2-1.7-3.6-4.2-10.5-5.6-15.5-2.1-7.1-2.8-12-3.2-23-0.4-9.8-0.1-17.3 1-25 0.8-6 2.7-14.6 4.2-19 1.4-4.4 4.7-12.7 7.2-18.5 2.5-5.8 6.4-13.4 8.8-17 2.3-3.6 8.4-11.2 13.7-17 5.2-5.8 13.5-14.3 18.4-19 4.9-4.7 12.7-10.9 17.4-13.8 4.7-2.9 15.2-8.6 23.5-12.7 8.2-4 23.3-11.2 33.5-15.8 10.2-4.7 21.9-10 26-12 6.7-3.1 9.2-5.2 38.5-34.7h-45.5v-450h43.5l-35-34.9-19-6.6c-10.5-3.7-24.4-8.9-31-11.7-6.6-2.7-17.4-7.6-24-10.8-7.3-3.5-14.9-8.1-19.5-11.7-4.1-3.3-13.8-12.5-21.4-20.4-7.7-7.9-15.8-17.3-18.2-20.9-2.3-3.6-5.6-9.4-7.4-13-1.8-3.6-5.2-11.5-7.5-17.5-2.3-6.1-5.3-15.1-6.6-20-2.1-7.9-2.4-11.2-2.3-26.5 0-15.7 0.3-18.5 2.7-27.5 1.5-5.5 4.2-13.2 6.1-17 2.5-5 6.4-10.1 13.9-18 5.7-6.1 12.8-12.7 15.8-14.7 3-2 10.1-5.2 15.9-7.2 5.8-1.9 13.4-4 17-4.5 3.6-0.5 13.2-0.8 21.5-0.6zm296.5 538l28.5-28.5-28.5-28.5z"/>
		<path id="Path 1" fill-rule="evenodd" class="s0" d="m936 2.4q16.5 0.3 23.5 2c3.9 0.9 9.7 2.6 13 3.7 3.3 1.2 8.3 3.6 11 5.4 2.8 1.9 10.2 8.7 16.6 15.2 9.1 9.2 12.4 13.2 14.8 18.3 1.6 3.6 4.3 10.5 5.8 15.5 2.6 8.4 2.7 10.2 2.8 27.5 0 15.6-0.4 20.1-2.2 28.5-1.3 5.5-3.8 13.8-5.7 18.5-1.9 4.7-4.9 11.9-6.8 16-1.9 4.1-5.6 10.9-8.2 15-3 4.5-10.9 13.6-20 22.9-8.3 8.4-18.2 17.9-22.1 21-3.9 3.1-10.8 7.9-15.5 10.7-4.7 2.8-15.9 9.3-25 14.4-9.1 5.1-30.5 16.4-78.5 41l-23 23c-18.1 18.2-22.7 23.2-21.5 24 0.8 0.5 7.9 5.7 15.7 11.7 7.8 5.9 14.2 11.1 14.2 11.6 0.1 0.4-6.3 10-14.1 21.5-7.8 11.4-16.5 24-19.5 28-2.9 3.9-5.9 7.2-6.5 7.2-0.7 0-6.3-3.9-12.3-8.6-6-4.8-15-11.3-20-14.5-5-3.3-9.4-5.9-10-5.9-0.5 0-26.5 25.5-57.7 56.8-31.3 31.2-56.8 56.9-56.8 57.2 0 0.3 55.5 0.4 123.2 0.2 87.4-0.2 123.6 0.1 124.3 0.8 0.6 0.6 1.2 8.9 1.3 18.8 0.2 9.7-0.1 24.9-0.8 33.7-0.6 8.8-1.8 20.5-2.7 26-0.8 5.5-3 15.4-4.8 22-1.8 6.6-5.6 17.4-8.4 24-2.8 6.6-7.8 17-11.2 23-3.3 6-8.2 13.9-10.7 17.5-2.6 3.6-8 10.5-12.2 15.4-4.1 5-12.6 13.5-30.2 29.1l51.7 50.6 16 8.3c8.8 4.6 23 12.1 31.5 16.8 8.5 4.7 22.5 12.7 31 17.8 8.5 5.1 19.3 11.8 24 14.8 5.6 3.7 13 10.2 21.9 19.2 7.4 7.4 17 17.8 21.3 23 5.8 6.9 9.5 12.6 13.3 20.5 3 6 6.9 15.3 8.8 20.5 2 5.2 4.3 13.1 5.2 17.5 0.9 4.4 1.9 13.2 2.2 19.5 0.3 7.7 0 14.8-1 21.5-0.9 5.5-2.9 14.3-4.6 19.5-1.6 5.2-4.4 11.5-6.2 14-1.7 2.5-8.4 9.7-14.8 16.1-6.4 6.4-13.6 12.6-16.1 13.9-2.5 1.3-7.6 3.4-11.5 4.7-3.9 1.3-9.9 3.1-13.5 3.9-4.2 1-11.2 1.6-20 1.6-7.6-0.1-17.9-0.8-23.5-1.7-5.5-0.9-13.4-2.7-17.5-4.1-4.1-1.4-14.7-6-23.5-10.4-12.3-6-17.7-9.3-23.5-14.3-4.1-3.5-13.6-12.7-21.1-20.3-7.4-7.6-15.8-17.3-18.5-21.4-2.8-4.1-11.4-18.8-19.1-32.5-7.7-13.8-20.3-37.1-41.6-79l-97.2-97.5h18.3c14.6 0 20.2-0.4 28.5-2.1 5.6-1.2 16.3-3.7 23.7-5.5 7.4-1.9 18.2-5.3 24-7.6 5.8-2.2 15.2-6.4 21-9.3 5.8-2.9 15-8.2 30.5-18.4l-48-48.4-12 5.1c-6.6 2.8-17.4 6.7-24 8.6-6.6 1.9-16 4-21 4.7-6.1 0.8-15.9 1-30.5 0.6-16.3-0.5-23.7-1.1-30.5-2.7-5-1.1-13.3-3.4-18.5-5.2-5.2-1.7-13.1-4.7-17.5-6.8-4.4-2-11.8-6-16.5-8.9-4.7-3-11.9-8.1-16-11.5-4.1-3.3-10.9-9.5-15-13.7-4.1-4.2-10.4-11.6-13.9-16.5-3.5-4.9-9.5-15.2-13.2-22.9-3.8-7.7-8.5-19-10.4-25-2.1-6.6-3.9-14.8-4.5-20.5-0.5-5.2-1-17.1-1-26.5 0-9.4 0.5-20.8 1-25.5 0.6-4.7 3-14.3 5.4-21.5 2.4-7.1 6.9-18.2 10.1-24.5 3.1-6.3 8.2-14.9 11.3-19 3.1-4.1 10.6-12.6 16.7-18.9 6-6.2 14.4-14.1 18.6-17.5 4.2-3.3 11.7-8.3 16.5-11 4.9-2.6 12.7-6.4 17.4-8.3 4.7-2 12.8-4.8 18-6.4 5.2-1.6 13.3-3.6 18-4.4 4.7-0.8 12.8-1.7 18-2.1 6.4-0.4 13.4-0.1 21.5 1 6.6 0.8 15.6 2.5 20 3.6 4.4 1.1 13 3.9 19 6.1 6 2.3 14.8 6.1 28 13l50.7-50.6-8.9-5.9c-4.8-3.2-15.5-9.1-23.8-13.1-8.2-4-19.5-8.9-25-11-5.5-2-15.9-5.2-23-7-7.1-1.8-17.5-3.9-23-4.5-5.5-0.6-16.8-1.5-40.4-2.5l101.4-103.2 12.9-24.4c7.1-13.4 18.3-33.6 24.9-44.9 6.5-11.3 14.9-25 18.4-30.5 4-6 10.6-14.1 16.7-20.4 5.5-5.7 14.8-14.6 20.6-19.9 5.8-5.2 13.4-11.4 17-13.8 3.6-2.3 11.5-6.3 17.5-8.9 6-2.6 14.1-5.7 18-7 3.9-1.3 10.6-3.1 15-3.9 5.7-1.1 12.8-1.4 24.5-1.2zm-190.1 649.1c8.2-5.7 13.9-10.5 18-14.2 4.1-3.7 10.4-10.2 13.9-14.3 4.1-4.9 8.1-11 11.2-17.5 2.7-5.5 6-13.6 7.5-18 1.4-4.6 3-12.5 3.5-18.5 0.6-5.8 1-11.1 1-11.7 0-1-15.7-1.3-75.3-1.3h-75.2z"/>
		<path id="Path 2" class="s1" d="m594.5 501l10 10c15.1-15.1 19.5-19.6 19.5-19.8 0-0.1-8.9-0.2-19.8-0.2h-19.7z"/>
		<path id="Path 3" class="s1" d="m580.3 349.1l-68.3 68.4c-38.1-38.1-39-38.9-40.4-37-0.8 1.1-5 7.8-9.2 15-4.3 7.1-9.7 17.3-12 22.5-2.3 5.2-5.7 14-7.7 19.5-1.9 5.5-4.6 14.9-6 21-1.4 6-3.3 15.7-4.2 21.5-0.8 5.8-1.8 17.5-2.2 26-0.4 9.6-0.1 20.1 0.6 27.5 0.7 6.6 2.1 16 3.2 21 1.1 5 3.3 13.7 4.9 19.5 1.6 5.8 4.7 15 6.9 20.5 2.1 5.5 6 14.3 8.6 19.5 2.6 5.2 7.7 14.4 11.4 20.3l6.6 10.8 39.5-39.6 137.5 137.5c32.9 0 38.5-0.4 46.8-2.1 5.6-1.2 16.3-3.7 23.7-5.5 7.4-1.9 18.2-5.3 24-7.6 5.8-2.2 15.2-6.4 21-9.3 5.8-2.9 15-8.2 20.5-11.8l10-6.6-48-48.4c-18.6 7.9-29.4 11.8-36 13.7-6.6 1.9-16 4-21 4.7-6.1 0.8-15.9 1-30.5 0.6-16.3-0.5-23.7-1.1-30.5-2.7-5-1.1-13.3-3.4-18.5-5.2-5.2-1.7-13.1-4.7-17.5-6.8-4.4-2-11.8-6-16.5-8.9-4.7-3-11.9-8.1-16-11.5-4.1-3.3-10.9-9.5-15-13.7-4.1-4.2-10.4-11.6-13.9-16.5-3.5-4.9-9.5-15.2-13.2-22.9-3.8-7.7-8.5-19-10.4-25-2.1-6.6-3.9-14.8-4.5-20.5-0.5-5.2-1-17.2-1-26.5 0-9.4 0.5-20.8 1-25.5 0.6-4.7 3-14.3 5.4-21.5 2.4-7.2 6.9-18.2 10.1-24.5 3.1-6.3 8.2-14.9 11.3-19 3.1-4.1 10.6-12.6 16.7-18.9 6-6.2 14.4-14.1 18.6-17.5 4.2-3.3 11.7-8.3 16.5-11 4.9-2.6 12.7-6.4 17.4-8.3 4.7-2 12.8-4.8 18-6.4 5.2-1.6 13.3-3.6 18-4.4 4.7-0.8 12.8-1.7 18-2.1 6.4-0.4 13.4-0.1 21.5 1 6.6 0.8 15.6 2.5 20 3.6 4.4 1.1 13 3.9 19 6.1 6 2.3 14.8 6.1 19.5 8.6l8.5 4.4 50.7-50.6c-13.7-9.1-24.4-15-32.7-19-8.2-4-20-9.1-26-11.3-6-2.2-16.6-5.4-23.5-7.1-6.9-1.7-16.3-3.5-21-4.1-4.7-0.6-15.9-1.3-25-1.6l-16.5-0.6z"/>
		<path id="Path 4" class="s1" d="m228 321.5l35.5 35.5 154-0.5 0.5-33-37.5-37.5h-188z"/>
		<path id="Path 5" class="s0" d="m399 304.5c10.2 10.2 18.6 18.5 18.8 18.5 0.1 0 0.2-8.3 0.2-18.5v-18.5h-37.5z"/>
		<path id="Path 6" class="s1" d="m229.5 699.8l-35 35c13.2 0.9 55.3 1.2 102 1.2h85l35.6-35.5c-0.1-25.6-0.5-33.3-0.9-33.7-0.4-0.4-34.7-1-76.2-1.3l-75.5-0.7z"/>
		<path id="Path 7" class="s0" d="m399.5 717.9l-18 18 36.5 0.1c-0.1-27.9-0.2-36-0.3-36-0.1 0-8.3 8.1-18.2 17.9z"/>
	</g>
</svg>
